<svg width="910" height="222" viewBox="0 0 910 222" fill="none" xmlns="http://www.w3.org/2000/svg">
<path d="M364.043 169.982C387.047 168.427 397.278 155.779 398.376 141.627C398.912 134.718 396.937 126.214 389.337 119.88C382.386 114.088 371.273 111.133 362.055 108.799C344.044 104.239 341.109 101.118 341.255 92.6594C341.402 84.2004 350.292 78.6074 360.899 79.2404C371.507 79.8744 378.274 85.1684 381.093 96.1484C381.093 96.1484 397.515 93.3384 397.506 93.1354C396.932 80.5964 382.345 65.0154 362.866 65.0154C340.492 65.0154 324.096 76.3854 324.261 94.3564C324.426 112.327 336.858 118.331 357.565 123.875C365.588 126.023 371.808 128.045 375.6 130.588C381.594 134.607 381.846 139.682 381.657 142.481C381.349 147.051 375.642 155.43 364.282 155.476C358.795 155.498 351.061 156.091 344.73 151.128C339.314 146.883 338.068 138.715 338.068 138.715L321.662 141.382C321.662 141.382 321.859 149.014 330.149 159.184C336.92 167.49 352.059 170.793 364.043 169.982Z" fill="white"></path>
<path d="M446.545 170.051C468.037 170.424 484.925 155.127 485.756 132.283C486.588 109.439 470.142 92.5955 446.286 92.6345C424.034 92.6705 407.259 108.777 407.029 131.725C406.8 154.673 424.538 169.67 446.545 170.051ZM446.652 155.841C433.866 155.713 422.755 145.765 422.857 131.45C422.959 117.136 433.438 106.564 446.269 106.536C459.708 106.505 470.505 116.686 470.486 131.287C470.467 145.887 459.439 155.969 446.652 155.841Z" fill="white"></path>
<path d="M720.459 169.979C741.951 170.352 758.838 155.055 759.67 132.211C760.501 109.367 744.056 92.5234 720.2 92.5624C697.947 92.5984 681.172 108.705 680.943 131.653C680.714 154.601 698.452 169.598 720.459 169.979ZM720.566 155.769C707.78 155.641 696.669 145.693 696.771 131.378C696.872 117.064 707.351 106.492 720.182 106.464C733.621 106.434 744.419 116.614 744.4 131.215C744.381 145.815 733.352 155.897 720.566 155.769Z" fill="white"></path>
<path d="M497.006 168.95H512.852V60.3984H497.006V168.95Z" fill="white"></path>
<path d="M546.842 170.027C552.335 170.027 561.09 166.672 565.825 161.089C569.8 156.402 572.22 150.276 572.22 150.276L572.016 168.944H587.791V115.759C587.305 103.345 575.861 92.1924 557.179 92.1924C538.351 92.1924 525.588 102.239 524.498 115.517L539.696 118.868C541.019 110.047 548.954 105.499 558.041 105.499C567.782 105.499 574.375 114.021 572.216 119.898C570.058 125.776 562.542 124.42 550.629 125.832C538.715 127.243 523.536 132.113 522.801 147.01C522.066 161.907 531.576 170.027 546.842 170.027ZM537.506 147.668C537.597 142.826 541.922 138.824 549.589 137.614C556.983 136.446 563.523 136.992 567.539 135.572C570.306 134.594 571.666 133.68 571.987 132.626C572.025 132.909 572.313 136.805 571.534 141.264C571.174 143.327 570.338 145.157 569.061 147.084C565.15 152.988 557.89 157.686 549.471 157.686C541.038 157.686 537.415 152.509 537.506 147.668Z" fill="white"></path>
<path d="M601.083 169.141H616.928V124.595C616.928 118.657 621.089 112.152 627.647 108.821C633.406 105.895 639.528 106.562 646.192 108.179C646.038 95.9585 646.163 93.2365 646.163 93.2365C646.163 93.2365 635.655 90.5765 627.955 95.3155C620.256 100.053 618.497 105.921 616.951 111.304C616.865 104.506 616.928 94.4005 616.928 94.4005H601.083V169.141Z" fill="white"></path>
<path d="M661.928 82.1804C666.997 82.1804 670.924 78.1474 670.924 73.2504C670.924 68.2814 666.997 64.2494 661.928 64.2494C656.931 64.2494 652.932 68.2814 652.932 73.2504C652.932 78.1474 656.931 82.1804 661.928 82.1804ZM654.218 169.604H669.639V93.8464H654.218V169.604Z" fill="white"></path>
<path d="M804.455 170.318C817.5 170.572 837.469 159.696 837.439 140.439C837.409 121.182 837.73 93.2405 837.73 93.2405L821.612 93.2905L822.184 137.433C821.905 147.95 815.788 155.996 804.019 155.825C792.25 155.654 784.985 149.778 784.985 138.114L785.312 93.2905H768.769L769.832 141.195C769.832 158.948 786.768 169.974 804.455 170.318Z" fill="white"></path>
<path d="M881.437 170.037C900.178 168.902 908.922 159.313 909.817 148.985C910.254 143.943 909.462 137.019 903.27 132.397C897.608 128.17 888.225 126.614 880.715 124.911C866.041 121.583 863.88 118.046 864.48 112.805C865.08 107.564 872.036 104.415 879.487 104.569C886.937 104.724 891.3 108.537 893.596 116.55C893.596 116.55 908.889 114.03 908.88 113.882C908.127 101.953 895.148 92.4504 879.279 92.4504C861.05 92.4504 848.891 101.731 849.025 114.846C849.16 127.961 857.354 133.638 874.495 136.321C884.388 137.869 893.515 140.325 894.387 145.857C895.258 151.388 890.401 156.729 882.164 157.579C877.717 158.037 871.786 158.113 867.58 155.613C862.945 152.859 861.292 145.876 861.292 145.876L846.42 148.88C846.42 148.88 847.069 154.734 853.823 162.156C859.339 168.218 871.673 170.629 881.437 170.037Z" fill="white"></path>
<path d="M220.941 149.734C229.559 138.641 242.713 134.44 250.322 140.352C257.931 146.263 257.113 160.048 248.495 171.141C239.877 182.233 226.723 186.434 219.114 180.523C211.505 174.611 212.323 160.827 220.941 149.734Z" fill="url(#paint0_radial_181_130)"></path>
<path d="M236.087 96.9054C235.089 82.8934 241.641 71.0104 250.722 70.3634C259.802 69.7174 267.972 80.5514 268.97 94.5624C269.969 108.574 263.417 120.457 254.336 121.104C245.256 121.751 237.086 110.917 236.087 96.9054Z" fill="url(#paint1_radial_181_130)"></path>
<path d="M198.486 49.3925C193.966 41.9775 187.744 25.3435 200.363 20.6195C212.981 15.8965 225.026 26.7815 228.74 37.0045C232.455 47.2265 231.157 61.0785 229.472 70.0145C227.788 78.9495 219.296 81.1535 212.453 70.5955C207.292 62.6305 203.005 56.8075 198.486 49.3925Z" fill="url(#paint2_radial_181_130)"></path>
<path d="M113.061 16.0594C111.932 2.56944 124.516 0.0354182 131.955 0.000418237C139.394 -0.0355818 147.83 2.24341 156.237 10.3444C170.169 23.7694 183.573 72.9064 174.329 73.8084C165.084 74.7094 114.19 29.5494 113.061 16.0594Z" fill="url(#paint3_radial_181_130)"></path>
<path d="M54.5896 67.6984C37.7133 62.2284 32.6597 48.7364 38.0177 37.5074C43.3756 26.2784 60.2723 21.9974 72.0677 26.6014C93.3147 34.8944 158.63 80.0734 152.76 89.1394C146.89 98.2064 79.6077 75.8074 54.5896 67.6984Z" fill="url(#paint4_radial_181_130)"></path>
<path d="M29.801 94.4044C51.9459 94.4504 146.177 101.833 145.697 116.215C145.217 130.598 33.5559 140.311 28.3522 140.379C10.5883 140.61 0.508727 132.772 0.0206274 119.102C-0.467473 105.433 7.65602 94.3584 29.801 94.4044Z" fill="url(#paint5_radial_181_130)"></path>
<path d="M138.081 215.706C130.578 208.259 131.187 198.144 141.948 187.3C147.167 182.041 172.512 157.699 183.055 163.923C193.597 170.146 174.523 205.366 170.647 210.941C161.594 223.964 145.585 223.152 138.081 215.706Z" fill="url(#paint6_radial_181_130)"></path>
<path d="M48.1353 192.89C43.0636 183.94 44.9868 170.889 56.1302 165.433C61.8738 162.621 141.171 130.653 149.689 144.108C158.208 157.563 102.385 192.376 84.6498 199.824C66.9148 207.272 53.2069 201.841 48.1353 192.89Z" fill="url(#paint7_radial_181_130)"></path>
<defs>
<radialGradient id="paint0_radial_181_130" cx="0" cy="0" r="1" gradientTransform="matrix(27.8528 -36.1054 33.6025 18.0426 227.77 167.74)" gradientUnits="userSpaceOnUse">
<stop stop-color="white"></stop>
<stop offset="0.40625" stop-color="white"></stop>
<stop offset="0.741667" stop-color="white" stop-opacity="0"></stop>
<stop offset="1" stop-color="white" stop-opacity="0"></stop>
</radialGradient>
<radialGradient id="paint1_radial_181_130" cx="0" cy="0" r="1" gradientTransform="matrix(4.51829 53.568 -35.6634 3.34742 250.301 73.5204)" gradientUnits="userSpaceOnUse">
<stop stop-color="white"></stop>
<stop offset="0.554167" stop-color="white"></stop>
<stop offset="0.875" stop-color="white" stop-opacity="0"></stop>
<stop offset="1" stop-color="white" stop-opacity="0"></stop>
</radialGradient>
<radialGradient id="paint2_radial_181_130" cx="0" cy="0" r="1" gradientTransform="matrix(30.7581 72.2813 -55.1562 11.8265 207.002 15.7675)" gradientUnits="userSpaceOnUse">
<stop stop-color="white"></stop>
<stop offset="0.46875" stop-color="white"></stop>
<stop offset="0.802083" stop-color="white" stop-opacity="0"></stop>
<stop offset="1" stop-color="white" stop-opacity="0"></stop>
</radialGradient>
<radialGradient id="paint3_radial_181_130" cx="0" cy="0" r="1" gradientUnits="userSpaceOnUse" gradientTransform="translate(141.088 -4.67458) rotate(80.8064) scale(95.9853 95.9853)">
<stop stop-color="white"></stop>
<stop offset="0.379167" stop-color="white"></stop>
<stop offset="0.61875" stop-color="white" stop-opacity="0.321007"></stop>
<stop offset="0.802083" stop-color="white" stop-opacity="0"></stop>
<stop offset="1" stop-color="white" stop-opacity="0"></stop>
</radialGradient>
<radialGradient id="paint4_radial_181_130" cx="0" cy="0" r="1" gradientTransform="matrix(170.848 46.8678 -44.5538 145.737 17.8678 30.5294)" gradientUnits="userSpaceOnUse">
<stop stop-color="white"></stop>
<stop offset="0.379167" stop-color="white"></stop>
<stop offset="0.61875" stop-color="white" stop-opacity="0.321007"></stop>
<stop offset="0.802083" stop-color="white" stop-opacity="0"></stop>
<stop offset="1" stop-color="white" stop-opacity="0"></stop>
</radialGradient>
<radialGradient id="paint5_radial_181_130" cx="0" cy="0" r="1" gradientTransform="matrix(180.059 -52.0959 55.1751 164.624 -7.04378 132.066)" gradientUnits="userSpaceOnUse">
<stop stop-color="white"></stop>
<stop offset="0.379167" stop-color="white"></stop>
<stop offset="0.61875" stop-color="white" stop-opacity="0.321007"></stop>
<stop offset="0.802083" stop-color="white" stop-opacity="0"></stop>
<stop offset="1" stop-color="white" stop-opacity="0"></stop>
</radialGradient>
<radialGradient id="paint6_radial_181_130" cx="0" cy="0" r="1" gradientTransform="matrix(23.7468 -78.1578 82.3104 7.93515 147.572 221.887)" gradientUnits="userSpaceOnUse">
<stop stop-color="white"></stop>
<stop offset="0.379167" stop-color="white"></stop>
<stop offset="0.61875" stop-color="white" stop-opacity="0.321007"></stop>
<stop offset="0.802083" stop-color="white" stop-opacity="0"></stop>
<stop offset="1" stop-color="white" stop-opacity="0"></stop>
</radialGradient>
<radialGradient id="paint7_radial_181_130" cx="0" cy="0" r="1" gradientTransform="matrix(67.5351 -88.5828 109.289 43.1124 63.0258 199.708)" gradientUnits="userSpaceOnUse">
<stop stop-color="white"></stop>
<stop offset="0.379167" stop-color="white"></stop>
<stop offset="0.604167" stop-color="white" stop-opacity="0.40681"></stop>
<stop offset="0.797917" stop-color="white" stop-opacity="0"></stop>
<stop offset="1" stop-color="white" stop-opacity="0"></stop>
</radialGradient>
</defs>
</svg>