<svg width="32" height="32" viewBox="0 0 270 222" preserveAspectRatio="xMidYMid meet" xmlns="http://www.w3.org/2000/svg">
<defs>
<linearGradient id="sg" x1="0" y1="0" x2="1" y2="1">
<stop offset="0" stop-color="#FFB800"></stop>
<stop offset="0.55" stop-color="#F07501"></stop>
<stop offset="1" stop-color="#E13202"></stop>
</linearGradient>
</defs>
<g fill="url(#sg)">
<path d="M220.941 149.734C229.559 138.641 242.713 134.44 250.322 140.352C257.931 146.263 257.113 160.048 248.495 171.141C239.877 182.233 226.723 186.434 219.114 180.523C211.505 174.611 212.323 160.827 220.941 149.734Z"></path>
<path d="M236.087 96.9054C235.089 82.8934 241.641 71.0104 250.722 70.3634C259.802 69.7174 267.972 80.5514 268.97 94.5624C269.969 108.574 263.417 120.457 254.336 121.104C245.256 121.751 237.086 110.917 236.087 96.9054Z"></path>
<path d="M198.486 49.3925C193.966 41.9775 187.744 25.3435 200.363 20.6195C212.981 15.8965 225.026 26.7815 228.74 37.0045C232.455 47.2265 231.157 61.0785 229.472 70.0145C227.788 78.9495 219.296 81.1535 212.453 70.5955C207.292 62.6305 203.005 56.8075 198.486 49.3925Z"></path>
<path d="M113.061 16.0594C111.932 2.56944 124.516 0.0354182 131.955 0.000418237C139.394 -0.0355818 147.83 2.24341 156.237 10.3444C170.169 23.7694 183.573 72.9064 174.329 73.8084C165.084 74.7094 114.19 29.5494 113.061 16.0594Z"></path>
<path d="M54.5896 67.6984C37.7133 62.2284 32.6597 48.7364 38.0177 37.5074C43.3756 26.2784 60.2723 21.9974 72.0677 26.6014C93.3147 34.8944 158.63 80.0734 152.76 89.1394C146.89 98.2064 79.6077 75.8074 54.5896 67.6984Z"></path>
<path d="M29.801 94.4044C51.9459 94.4504 146.177 101.833 145.697 116.215C145.217 130.598 33.5559 140.311 28.3522 140.379C10.5883 140.61 0.508727 132.772 0.0206274 119.102C-0.467473 105.433 7.65602 94.3584 29.801 94.4044Z"></path>
<path d="M138.081 215.706C130.578 208.259 131.187 198.144 141.948 187.3C147.167 182.041 172.512 157.699 183.055 163.923C193.597 170.146 174.523 205.366 170.647 210.941C161.594 223.964 145.585 223.152 138.081 215.706Z"></path>
<path d="M48.1353 192.89C43.0636 183.94 44.9868 170.889 56.1302 165.433C61.8738 162.621 141.171 130.653 149.689 144.108C158.208 157.563 102.385 192.376 84.6498 199.824C66.9148 207.272 53.2069 201.841 48.1353 192.89Z"></path>
</g>
</svg>